<?xml version="1.0" encoding="UTF-8"?><svg xmlns="http://www.w3.org/2000/svg" xmlns:xlink="http://www.w3.org/1999/xlink" width="375" zoomAndPan="magnify" viewBox="0 0 375 374.999991" height="374.999991" preserveAspectRatio="xMidYMid meet" version="1.0"><defs><clipPath id="clip-0"><path d="M 46 216 L 348 216 L 348 352.585938 L 46 352.585938 Z M 46 216 " clip-rule="nonzero"/></clipPath></defs><path fill="rgb(94.509888%, 27.449036%, 14.898682%)" d="M 32.023438 257.367188 C 28.996094 257.367188 26.539062 259.820312 26.539062 262.851562 L 26.539062 306.011719 C 26.539062 309.039062 28.996094 311.496094 32.023438 311.496094 C 35.054688 311.496094 37.507812 309.039062 37.507812 306.011719 L 37.507812 262.851562 C 37.507812 259.820312 35.054688 257.367188 32.023438 257.367188 " fill-opacity="1" fill-rule="nonzero"/><g clip-path="url(#clip-0)"><path fill="rgb(94.509888%, 27.449036%, 14.898682%)" d="M 114.542969 341.597656 C 83.027344 341.597656 57.386719 315.953125 57.386719 284.429688 C 57.386719 252.914062 83.027344 227.265625 114.542969 227.265625 C 146.054688 227.265625 171.699219 252.914062 171.699219 284.429688 C 171.699219 315.953125 146.054688 341.597656 114.542969 341.597656 Z M 279.757812 341.597656 C 248.242188 341.597656 222.605469 315.953125 222.605469 284.429688 C 222.605469 252.914062 248.242188 227.265625 279.757812 227.265625 C 311.273438 227.265625 336.910156 252.914062 336.910156 284.429688 C 336.910156 315.953125 311.273438 341.597656 279.757812 341.597656 Z M 279.757812 216.296875 C 244.042969 216.296875 214.660156 243.929688 211.855469 278.945312 L 182.449219 278.945312 C 179.644531 243.929688 150.253906 216.296875 114.542969 216.296875 C 76.976562 216.296875 46.417969 246.863281 46.417969 284.429688 C 46.417969 322.003906 76.976562 352.566406 114.542969 352.566406 C 150.253906 352.566406 179.644531 324.9375 182.449219 289.921875 C 182.449219 289.921875 182.449219 289.921875 182.449219 289.917969 L 211.855469 289.917969 C 211.855469 289.921875 211.855469 289.921875 211.855469 289.921875 C 214.660156 324.9375 244.042969 352.566406 279.757812 352.566406 C 317.320312 352.566406 347.886719 322.003906 347.886719 284.429688 C 347.886719 246.863281 317.320312 216.296875 279.757812 216.296875 " fill-opacity="1" fill-rule="nonzero"/></g><path fill="rgb(12.939453%, 11.369324%, 11.369324%)" d="M 132.074219 277.785156 C 126.058594 277.785156 121.183594 272.910156 121.183594 266.894531 C 121.183594 263.339844 122.886719 260.179688 125.515625 258.199219 C 122.136719 256.78125 118.433594 256.003906 114.539062 256.003906 C 98.839844 256.003906 86.113281 268.730469 86.113281 284.429688 C 86.113281 300.132812 98.839844 312.859375 114.539062 312.859375 C 130.234375 312.859375 142.96875 300.132812 142.96875 284.429688 C 142.96875 280.539062 142.183594 276.824219 140.777344 273.449219 C 138.785156 276.085938 135.628906 277.785156 132.074219 277.785156 " fill-opacity="1" fill-rule="nonzero"/><path fill="rgb(12.939453%, 11.369324%, 11.369324%)" d="M 297.289062 277.785156 C 291.273438 277.785156 286.398438 272.910156 286.398438 266.894531 C 286.398438 263.339844 288.097656 260.179688 290.734375 258.199219 C 287.351562 256.78125 283.648438 256.003906 279.753906 256.003906 C 264.058594 256.003906 251.332031 268.730469 251.332031 284.429688 C 251.332031 300.132812 264.058594 312.859375 279.753906 312.859375 C 295.453125 312.859375 308.183594 300.132812 308.183594 284.429688 C 308.183594 280.539062 307.398438 276.824219 305.992188 273.449219 C 304 276.085938 300.84375 277.785156 297.289062 277.785156 " fill-opacity="1" fill-rule="nonzero"/><path fill="rgb(94.509888%, 27.449036%, 14.898682%)" d="M 362.277344 257.367188 C 359.25 257.367188 356.789062 259.820312 356.789062 262.851562 L 356.789062 306.011719 C 356.789062 309.039062 359.25 311.496094 362.277344 311.496094 C 365.308594 311.496094 367.761719 309.039062 367.761719 306.011719 L 367.761719 262.851562 C 367.761719 259.820312 365.308594 257.367188 362.277344 257.367188 " fill-opacity="1" fill-rule="nonzero"/><path fill="rgb(12.939453%, 11.369324%, 11.369324%)" d="M 279.3125 78.625 L 313.304688 50.511719 C 313.882812 50.03125 313.273438 49.125 312.609375 49.488281 C 295.765625 58.609375 248.28125 79.957031 187.183594 70.179688 C 187.183594 70.179688 145.121094 58.660156 193.792969 45.605469 C 193.792969 45.605469 118.082031 22.570312 88.140625 84.765625 C 88.140625 84.765625 66.644531 72.484375 38.234375 80.929688 C 38.234375 80.929688 57.429688 107.035156 18.273438 123.929688 C -20.882812 140.820312 23.648438 244.484375 23.648438 244.484375 C 23.648438 244.484375 68.179688 217.609375 67.410156 159.25 C 67.410156 159.25 157.238281 204.554688 214.824219 201.867188 C 214.824219 201.867188 193.324219 196.109375 191.019531 176.910156 C 191.019531 176.910156 207.910156 183.824219 266.261719 183.824219 C 266.261719 183.824219 247.066406 183.054688 246.300781 170 C 246.300781 170 273.941406 186.894531 307.71875 159.25 C 307.71875 159.25 320.773438 226.824219 351.484375 232.964844 C 351.484375 232.964844 314.632812 182.289062 355.320312 132.375 C 396.011719 82.464844 279.3125 78.625 279.3125 78.625 " fill-opacity="1" fill-rule="nonzero"/></svg>